<svg width="38" height="34" viewBox="0 0 38 34" fill="none" xmlns="http://www.w3.org/2000/svg">
<g clip-path="url(#clip0)">
<path d="M37.6437 31.2773L2.13747 0.233079C2.04008 0.145873 1.92829 0.0809741 1.80848 0.0420883C1.68866 0.00320243 1.56318 -0.00890908 1.43918 0.00644523C1.31518 0.0217995 1.1951 0.064319 1.08579 0.131576C0.976489 0.198833 0.880098 0.28951 0.802126 0.39843L0.208376 1.22784C0.130221 1.3368 0.0720426 1.46193 0.0371705 1.59606C0.00229851 1.73019 -0.00858285 1.87069 0.00514911 2.00953C0.0188811 2.14837 0.0569568 2.28282 0.117198 2.40519C0.177438 2.52755 0.258662 2.63543 0.35622 2.72265L35.8625 33.7669C35.9599 33.8541 36.0716 33.919 36.1915 33.9579C36.3113 33.9968 36.4368 34.0089 36.5608 33.9935C36.6848 33.9782 36.8048 33.9357 36.9141 33.8684C37.0234 33.8012 37.1198 33.7105 37.1978 33.6016L37.7916 32.7721C37.8697 32.6632 37.9279 32.5381 37.9628 32.4039C37.9976 32.2698 38.0085 32.1293 37.9948 31.9905C37.9811 31.8516 37.943 31.7172 37.8827 31.5948C37.8225 31.4724 37.7413 31.3646 37.6437 31.2773V31.2773ZM17.6219 9.72652L25.625 16.7244C25.4932 12.744 22.591 9.56249 19 9.56249C18.5368 9.56346 18.0749 9.61843 17.6219 9.72652ZM20.3781 24.2741L12.3749 17.2762C12.5073 21.256 15.4096 24.4375 19 24.4375C19.4631 24.4364 19.925 24.3816 20.3781 24.2741V24.2741ZM19 7.43749C24.8573 7.43749 30.2272 11.0898 33.1271 17C32.4162 18.4545 31.5379 19.7985 30.5146 20.9976L32.7554 22.9566C34.003 21.464 35.0599 19.7855 35.8963 17.9689C36.0321 17.6684 36.1029 17.3364 36.1029 16.9997C36.1029 16.663 36.0321 16.331 35.8963 16.0305C32.6734 9.00402 26.2989 4.24999 19 4.24999C16.8209 4.24999 14.7422 4.71484 12.7876 5.49909L15.5432 7.90898C16.6677 7.62343 17.8196 7.43749 19 7.43749ZM19 26.5625C13.1426 26.5625 7.77334 22.9101 4.87288 17C5.58465 15.5455 6.46398 14.2017 7.48835 13.003L5.24753 11.044C4.00015 12.5365 2.94335 14.2148 2.10719 16.0311C1.97136 16.3316 1.9006 16.6636 1.9006 17.0003C1.9006 17.337 1.97136 17.669 2.10719 17.9695C5.32709 24.996 11.7016 29.75 19 29.75C21.179 29.75 23.2578 29.2818 25.2124 28.5009L22.4568 26.0917C21.3322 26.3766 20.1809 26.5625 19 26.5625Z" fill="white"/>
</g>
<defs>
<clipPath id="clip0">
<rect width="38" height="34" fill="white"/>
</clipPath>
</defs>
</svg>
