<svg width="38" height="34" viewBox="0 0 38 34" fill="none" xmlns="http://www.w3.org/2000/svg">
<g clip-path="url(#clip0)">
<path d="M19.0001 9.5625C18.3009 9.5735 17.6068 9.68531 16.9391 9.89453C17.248 10.4413 17.4124 11.0586 17.4168 11.6875C17.4168 12.1759 17.3212 12.6594 17.1355 13.1106C16.9499 13.5618 16.6777 13.9717 16.3347 14.3171C15.9916 14.6624 15.5843 14.9363 15.1361 15.1232C14.6879 15.3101 14.2075 15.4062 13.7223 15.4062C13.0975 15.4019 12.4842 15.2364 11.9411 14.9255C11.5125 16.4215 11.5625 18.0153 12.0838 19.4811C12.6052 20.9469 13.5715 22.2105 14.8459 23.0928C16.1203 23.9751 17.6383 24.4314 19.1847 24.3972C20.731 24.3629 22.2275 23.8397 23.4621 22.9017C24.6967 21.9638 25.6068 20.6586 26.0635 19.1711C26.5202 17.6835 26.5004 16.0891 26.0068 14.6135C25.5132 13.138 24.5709 11.8562 23.3134 10.9496C22.0559 10.0431 20.5468 9.5578 19.0001 9.5625ZM37.7705 16.0305C34.1928 9.00402 27.11 4.25 19.0001 4.25C10.8901 4.25 3.80536 9.00734 0.229669 16.0311C0.0787525 16.3316 0.00012207 16.6636 0.00012207 17.0003C0.00012207 17.337 0.0787525 17.669 0.229669 17.9695C3.80734 24.996 10.8901 29.75 19.0001 29.75C27.11 29.75 34.1948 24.9927 37.7705 17.9689C37.9214 17.6684 38 17.3364 38 16.9997C38 16.663 37.9214 16.331 37.7705 16.0305ZM19.0001 26.5625C12.4919 26.5625 6.5254 22.9102 3.30331 17C6.5254 11.0898 12.4913 7.4375 19.0001 7.4375C25.5089 7.4375 31.4748 11.0898 34.6969 17C31.4754 22.9102 25.5089 26.5625 19.0001 26.5625Z" fill="white"/>
</g>
<defs>
<clipPath id="clip0">
<rect width="38" height="34" fill="white"/>
</clipPath>
</defs>
</svg>
