<svg width="33" height="33" viewBox="0 0 33 33" fill="none" xmlns="http://www.w3.org/2000/svg">
<g clip-path="url(#clip0)">
<path d="M28.3602 0.419486L1.54773 15.8818C-0.669453 17.1644 -0.456757 20.4451 1.91512 21.4183L9.28211 24.4669V29.9068C9.28211 32.8974 13.0977 34.1285 14.8638 31.7501L17.6868 27.941L24.8991 30.9187C25.2794 31.0734 25.679 31.1507 26.0786 31.1507C26.6071 31.1507 27.1292 31.0154 27.5997 30.7511C28.4247 30.2871 28.9919 29.4621 29.1401 28.5275L32.9686 3.57124C33.3618 0.986674 30.5903 -0.863131 28.3602 0.419486ZM12.3759 29.9068V25.7431L14.7348 26.7164L12.3759 29.9068ZM26.0786 28.057L16.1657 23.9642L25.202 10.9253C25.8917 9.92632 24.5897 8.76616 23.6745 9.55894L10.0427 21.4376L3.09461 18.563L29.9071 3.09429L26.0786 28.057Z" fill="white"/>
</g>
<defs>
<clipPath id="clip0">
<rect width="33" height="33" fill="white"/>
</clipPath>
</defs>
</svg>
