<svg width="33" height="38" viewBox="0 0 33 38" fill="none" xmlns="http://www.w3.org/2000/svg">
<path d="M23.1 22.5625C20.9859 22.5625 19.9694 23.75 16.5 23.75C13.0306 23.75 12.0214 22.5625 9.9 22.5625C4.43437 22.5625 0 27.0305 0 32.5375V34.4375C0 36.4043 1.58371 38 3.53571 38H29.4643C31.4163 38 33 36.4043 33 34.4375V32.5375C33 27.0305 28.5656 22.5625 23.1 22.5625ZM29.4643 34.4375H3.53571V32.5375C3.53571 29.0047 6.39375 26.125 9.9 26.125C10.9754 26.125 12.7212 27.3125 16.5 27.3125C20.3083 27.3125 22.0172 26.125 23.1 26.125C26.6063 26.125 29.4643 29.0047 29.4643 32.5375V34.4375ZM16.5 21.375C22.356 21.375 27.1071 16.5879 27.1071 10.6875C27.1071 4.78711 22.356 0 16.5 0C10.644 0 5.89286 4.78711 5.89286 10.6875C5.89286 16.5879 10.644 21.375 16.5 21.375ZM16.5 3.5625C20.3967 3.5625 23.5714 6.76133 23.5714 10.6875C23.5714 14.6137 20.3967 17.8125 16.5 17.8125C12.6033 17.8125 9.42857 14.6137 9.42857 10.6875C9.42857 6.76133 12.6033 3.5625 16.5 3.5625Z" fill="white"/>
</svg>
